<?xml version="1.0" encoding="UTF-8" standalone="no"?>
<svg
   id="Layer_1"
   data-name="Layer 1"
   viewBox="0 0 697.56171 417.14001"
   version="1.1"
   sodipodi:docname="AWS.svg"
   width="697.56171"
   height="417.14001"
   inkscape:version="1.4.3 (0d15f75, 2025-12-25)"
   xmlns:inkscape="http://www.inkscape.org/namespaces/inkscape"
   xmlns:sodipodi="http://sodipodi.sourceforge.net/DTD/sodipodi-0.dtd"
   xmlns="http://www.w3.org/2000/svg"
   xmlns:svg="http://www.w3.org/2000/svg">
  <sodipodi:namedview
     id="namedview33"
     pagecolor="#ffffff"
     bordercolor="#999999"
     borderopacity="1"
     inkscape:showpageshadow="2"
     inkscape:pageopacity="0"
     inkscape:pagecheckerboard="0"
     inkscape:deskcolor="#d1d1d1"
     inkscape:zoom="0.94375"
     inkscape:cx="311.52318"
     inkscape:cy="428.07947"
     inkscape:current-layer="Layer_1" />
  <defs
     id="defs1">
    <style
       id="style1">
      .cls-1 {
        fill: #252f3e;
      }

      .cls-2, .cls-3 {
        fill: #f90;
      }

      .cls-2, .cls-4 {
        fill-rule: evenodd;
      }

      .cls-5 {
        stroke: #000;
      }
    </style>
  </defs>
  <g
     id="g33"
     transform="translate(-168.0699,-51.94)">
    <path
       class="cls-1"
       d="m 364.65,203.43 c 0,8.58 0.93,15.54 2.55,20.65 1.86,5.1 4.18,10.67 7.42,16.7 1.16,1.86 1.62,3.71 1.62,5.34 0,2.32 -1.39,4.64 -4.41,6.96 l -14.62,9.74 c -2.09,1.39 -4.18,2.09 -6.03,2.09 -2.32,0 -4.64,-1.16 -6.96,-3.25 -3.25,-3.48 -6.03,-7.19 -8.35,-10.9 -2.32,-3.94 -4.64,-8.35 -7.19,-13.69 -18.1,21.34 -40.83,32.02 -68.21,32.02 -19.49,0 -35.03,-5.57 -46.4,-16.7 -11.37,-11.14 -17.17,-25.98 -17.17,-44.55 0,-19.72 6.96,-35.73 21.11,-47.79 14.15,-12.06 32.94,-18.1 56.84,-18.1 7.89,0 16.01,0.7 24.59,1.86 8.58,1.16 17.4,3.02 26.68,5.1 v -16.94 c 0,-17.63 -3.71,-29.93 -10.9,-37.12 -7.42,-7.19 -19.95,-10.67 -37.82,-10.67 -8.12,0 -16.47,0.93 -25.06,3.02 -8.58,2.09 -16.94,4.64 -25.06,7.89 -3.71,1.62 -6.5,2.55 -8.12,3.02 -1.62,0.47 -2.78,0.7 -3.71,0.7 -3.25,0 -4.87,-2.32 -4.87,-7.19 V 80.25 c 0,-3.71 0.46,-6.5 1.62,-8.12 1.16,-1.62 3.25,-3.25 6.5,-4.87 8.12,-4.18 17.86,-7.66 29.23,-10.44 11.37,-3.02 23.43,-4.41 36.19,-4.41 27.61,0 47.79,6.26 60.79,18.79 12.76,12.53 19.26,31.55 19.26,57.07 v 75.17 h 0.46 z m -94.19,35.26 c 7.66,0 15.54,-1.39 23.9,-4.18 8.36,-2.79 15.78,-7.89 22.04,-14.85 3.71,-4.41 6.5,-9.28 7.89,-14.85 1.39,-5.57 2.32,-12.3 2.32,-20.18 v -9.74 c -6.73,-1.62 -13.92,-3.02 -21.34,-3.94 -7.42,-0.92 -14.62,-1.39 -21.81,-1.39 -15.54,0 -26.91,3.02 -34.57,9.28 -7.66,6.26 -11.37,15.08 -11.37,26.68 0,10.9 2.78,19.02 8.58,24.59 5.57,5.8 13.69,8.58 24.36,8.58 z m 186.3,25.06 c -4.18,0 -6.96,-0.7 -8.82,-2.32 -1.86,-1.39 -3.48,-4.64 -4.87,-9.05 L 388.55,73.04 c -1.39,-4.64 -2.09,-7.66 -2.09,-9.28 0,-3.71 1.86,-5.8 5.57,-5.8 h 22.74 c 4.41,0 7.42,0.7 9.05,2.32 1.86,1.39 3.25,4.64 4.64,9.05 l 38.98,153.59 36.19,-153.59 c 1.16,-4.64 2.55,-7.66 4.41,-9.05 1.86,-1.39 5.1,-2.32 9.28,-2.32 h 18.56 c 4.41,0 7.42,0.7 9.28,2.32 1.86,1.39 3.48,4.64 4.41,9.05 l 36.66,155.44 40.14,-155.44 c 1.39,-4.64 3.02,-7.66 4.64,-9.05 1.86,-1.39 4.87,-2.32 9.05,-2.32 h 21.58 c 3.71,0 5.8,1.86 5.8,5.8 0,1.16 -0.23,2.32 -0.46,3.71 -0.23,1.39 -0.7,3.25 -1.62,5.8 l -55.91,179.34 c -1.39,4.64 -3.02,7.66 -4.87,9.05 -1.85,1.39 -4.87,2.32 -8.82,2.32 h -19.95 c -4.41,0 -7.42,-0.7 -9.28,-2.32 -1.86,-1.62 -3.48,-4.64 -4.41,-9.28 L 526.16,102.74 490.43,252.15 c -1.16,4.64 -2.55,7.66 -4.41,9.28 -1.86,1.62 -5.1,2.32 -9.28,2.32 h -19.95 z m 298.13,6.26 c -12.06,0 -24.13,-1.39 -35.73,-4.18 -11.6,-2.78 -20.65,-5.8 -26.68,-9.28 -3.71,-2.09 -6.26,-4.41 -7.19,-6.5 -0.93,-2.09 -1.39,-4.41 -1.39,-6.5 v -11.83 c 0,-4.87 1.86,-7.19 5.34,-7.19 1.39,0 2.78,0.23 4.18,0.7 1.39,0.46 3.48,1.39 5.8,2.32 7.89,3.48 16.47,6.26 25.52,8.12 9.28,1.86 18.33,2.78 27.61,2.78 14.62,0 25.98,-2.55 33.87,-7.66 7.89,-5.1 12.06,-12.53 12.06,-22.04 0,-6.5 -2.09,-11.83 -6.26,-16.24 -4.18,-4.41 -12.06,-8.35 -23.43,-12.06 l -33.64,-10.44 c -16.94,-5.34 -29.46,-13.22 -37.12,-23.66 -7.66,-10.21 -11.6,-21.58 -11.6,-33.64 0,-9.74 2.09,-18.33 6.26,-25.75 4.18,-7.42 9.74,-13.92 16.7,-19.02 6.96,-5.34 14.85,-9.28 24.13,-12.06 9.28,-2.78 19.02,-3.94 29.23,-3.94 5.1,0 10.44,0.23 15.54,0.93 5.34,0.7 10.21,1.62 15.08,2.55 4.64,1.16 9.05,2.32 13.22,3.71 4.17,1.39 7.42,2.78 9.74,4.18 3.25,1.86 5.57,3.71 6.96,5.8 1.39,1.86 2.09,4.41 2.09,7.66 v 10.9 c 0,4.87 -1.86,7.42 -5.34,7.42 -1.86,0 -4.87,-0.93 -8.82,-2.78 -13.22,-6.03 -28.07,-9.05 -44.55,-9.05 -13.22,0 -23.66,2.09 -30.86,6.5 -7.19,4.41 -10.9,11.14 -10.9,20.65 0,6.5 2.32,12.06 6.96,16.47 4.64,4.41 13.22,8.82 25.52,12.76 l 32.94,10.44 c 16.7,5.34 28.77,12.76 35.96,22.27 7.19,9.51 10.67,20.42 10.67,32.48 0,9.98 -2.09,19.02 -6.03,26.91 -4.18,7.89 -9.74,14.85 -16.94,20.42 -7.19,5.8 -15.78,9.98 -25.75,12.99 -10.44,3.25 -21.34,4.87 -33.18,4.87 z"
       id="path32" />
    <path
       class="cls-3"
       d="m 798.73,382.77 c -76.33,56.38 -187.23,86.31 -282.58,86.31 -133.64,0 -254.05,-49.42 -344.99,-131.55 -7.19,-6.5 -0.7,-15.31 7.89,-10.21 98.37,57.07 219.71,91.64 345.22,91.64 84.68,0 177.72,-17.63 263.33,-53.83 12.76,-5.8 23.66,8.35 11.14,17.63 z m 31.78,-36.19 c -9.74,-12.53 -64.5,-6.03 -89.32,-3.02 -7.42,0.93 -8.58,-5.57 -1.86,-10.44 43.62,-30.62 115.31,-21.81 123.66,-11.6 8.35,10.44 -2.32,82.13 -43.15,116.47 -6.26,5.34 -12.3,2.55 -9.51,-4.41 9.28,-22.97 29.93,-74.71 20.18,-87 z"
       id="path33" />
  </g>
</svg>
