<?xml version="1.0" encoding="utf-8"?>
<!-- Generator: Adobe Illustrator 19.0.0, SVG Export Plug-In . SVG Version: 6.00 Build 0)  -->
<svg version="1.1" id="layer" xmlns="http://www.w3.org/2000/svg" xmlns:xlink="http://www.w3.org/1999/xlink" x="0px" y="0px"
	 viewBox="13 59 393.9 91.3" style="enable-background:new 13 59 393.9 91.3;" xml:space="preserve">
<style type="text/css">
	.st0{fill:#33D9DD;}
	.st1{fill:#373737;}
	.st2{fill:#0062FE;}
	.st3{fill:#0C9EEF;}
	.st4{fill:#0676FC;}
	.st5{fill:#0080F9;}
	.st6{fill:#20BCE6;}
	.st7{fill:#0290F3;}
	.st8{fill:#0185F7;}
	.st9{fill:#018AF5;}
	.st10{fill:#2FD5DD;}
	.st11{fill:#0166FE;}
	.st12{fill:#0797F1;}
	.st13{fill:#24C3E4;}
	.st14{fill:#016AFE;}
	.st15{fill:#067CFA;}
	.st16{fill:#17ADEB;}
	.st17{fill:#28C7E3;}
	.st18{fill:#24C1E5;}
	.st19{fill:#36E3DA;}
	.st20{fill:#32DCDC;}
	.st21{fill:#2DD3DE;}
	.st22{fill:#2ED0E0;}
	.st23{fill:#21BCE6;}
	.st24{fill:#22BFE5;}
	.st25{fill:#1CB4E8;}
	.st26{fill:#24B1EC;}
	.st27{fill:#32D7DD;}
	.st28{fill:#31C8E4;}
	.st29{fill:#10A3EE;}
	.st30{fill:#35BDEA;}
	.st31{fill:#14A7ED;}
	.st32{fill:#0677FD;}
	.st33{fill:#39AFF1;}
	.st34{fill:#1EB7E7;}
	.st35{fill:#46C8E9;}
	.st36{fill:#33B4ED;}
	.st37{fill:#3CC2E9;}
	.st38{fill:#E1F7FA;}
	.st39{fill:#34DBDC;}
	.st40{fill:#2BCFE0;}
	.st41{fill:#40AFF2;}
	.st42{fill:#E5F1FE;}
	.st43{fill:#3DCBE6;}
	.st44{fill:#4FCCEA;}
	.st45{fill:#59D0EA;}
	.st46{fill:#D1E8FD;}
	.st47{fill:#79D8EE;}
	.st48{fill:#47AFF4;}
	.st49{fill:#2AADEF;}
	.st50{fill:#D8F4F9;}
	.st51{fill:#30ADF0;}
	.st52{fill:#1E86FD;}
	.st53{fill:#AED6FC;}
	.st54{fill:#D9EBFE;}
	.st55{fill:#52B2F5;}
	.st56{fill:#7FDCED;}
	.st57{fill:#98CCFB;}
	.st58{fill:#63D3EB;}
	.st59{fill:#4ACEE7;}
	.st60{fill:#9EE0F3;}
	.st61{fill:#2DBAE9;}
	.st62{fill:#D8F0FB;}
	.st63{fill:#E2F4FC;}
	.st64{fill:#65D4EB;}
	.st65{fill:#84DAF0;}
	.st66{fill:#28B8E9;}
	.st67{fill:#93DDF2;}
	.st68{fill:#8CE0EF;}
	.st69{fill:#5AD1EA;}
	.st70{fill:#71D6ED;}
	.st71{fill:#BEE8F8;}
	.st72{fill:#5AB4F6;}
	.st73{fill:#2E8EFC;}
	.st74{fill:#71BCF8;}
	.st75{fill:#67B9F8;}
	.st76{fill:#CCF1F7;}
	.st77{fill:#C5EBF9;}
	.st78{fill:#8BDBF0;}
	.st79{fill:#52CFE8;}
	.st80{fill:#C3E0FC;}
	.st81{fill:#9CCDFC;}
	.st82{fill:#59A7FC;}
	.st83{fill:#CEEDFA;}
	.st84{fill:#A4E1F4;}
	.st85{fill:#73D9EC;}
	.st86{fill:#9DE5F1;}
	.st87{fill:#AED5FC;}
	.st88{fill:#ADE4F6;}
	.st89{fill:#B4E5F6;}
	.st90{fill:#79BFF8;}
	.st91{fill:#499EFB;}
	.st92{fill:#C9E4FC;}
	.st93{fill:#B8ECF5;}
	.st94{fill:#3D97FB;}
	.st95{fill:#D7EBFD;}
	.st96{fill:#A7E7F2;}
	.st97{fill:#C1EEF6;}
	.st98{fill:#93E2F0;}
	.st99{fill:#70B4FC;}
	.st100{fill:#AFEAF3;}
	.st101{fill:#82C3F9;}
	.st102{fill:#BBDDFC;}
	.st103{fill:#E5F2FE;}
	.st104{fill:#B6DAFC;}
	.st105{fill:#EEFAFC;}
	.st106{fill:#63ACFC;}
	.st107{fill:#7ABAFC;}
	.st108{fill:#8DC5FB;}
	.st109{fill:#F1F9FD;}
	.st110{fill:#86C0FB;}
	.st111{fill:#1E82FE;}
	.st112{fill:#006AFE;}
	.st113{fill:#0167FE;}
	.st114{fill:#2AB3EB;}
	.st115{fill:#69D4EC;}
	.st116{fill:#90C8FA;}
	.st117{fill:#69D5EB;}
</style>
<g id="Layer_2">
	<g id="Layer_1-2">
		<g id="pkI8Hz.tif">
			<path class="st0" d="M62.7,68.6c0-2.4,0-4.9-0.1-7.4c0-1.1,0.7-1.7,1.4-2.3h1c1.1,0.7,1.4,1.6,1.4,2.8c-0.1,3,0,5.9,0,8.9
				c0,0.6,0.1,1.2-0.3,1.8c-1-1.1-0.3-2.4-0.5-3.6c-0.1-1.6,0-3.2,0.3-4.8c-0.1,1.2-0.3,1.3-2.4,0.6c-0.1,0.9,0.1,1.7-0.1,2.6
				C63.4,67.7,63.7,68.5,62.7,68.6z"/>
			<path class="st1" d="M398.6,93.3c2-0.5,4.1-0.1,6.2-0.3c0.7-0.1,1.4-0.1,2-0.1v42.2c-2.2,0-4.5-0.1-6.6-0.1
				c-0.5,0-1.1,0.3-1.6-0.3c1.1-0.9,2.4-0.5,3.6-0.6c4.1-0.1,3.7,0.3,3.7-3.9c0-11.1,0-22.2,0-33.3c0-0.6,0-1.1,0-1.7
				c0.1-1.2-0.6-1.6-1.6-1.6c-1.1,0-2.4,0-3.6,0C399.9,93.9,399.1,94,398.6,93.3z"/>
			<path d="M406.6,94.7c0-1-0.3-1.3-1.2-1.3c-2.2,0.1-4.5,0-6.7-0.1c-0.5,0.5-0.2,1.1-0.2,1.6c0,4.6,0,9.2-0.1,13.8
				c0,0.5,0.3,1-0.3,1.4c-0.7-2.1-2.3-3.9-4.4-4.7c-4.9-2-10.4,0-12.9,4.6c-1,1.9-1.6,3.9-1.8,6c-0.5,4.9-0.5,9.8,1.9,14.4
				c2.9,5.5,10.6,7.1,15.1,3.1c1-1,1.8-2.2,2.3-3.5c0.4,1.8-0.1,3.3,0.4,4.8c2.2,0,4.5-0.1,6.7-0.1c1,0,1.3-0.3,1.2-1.2
				C406.5,120.6,406.5,107.6,406.6,94.7z M398.3,123.7c0,3.6-2.1,5.5-5.8,5.3c-2.6-0.1-4.7-2-5.1-4.5c-0.5-2.7-0.5-5.4-0.1-8.2
				c0.7-4.4,5.6-6.3,9.2-3.6c1.1,0.7,1.6,1.8,1.6,3c0,1.5,0,3.1,0,4.6l0,0C398.3,121.4,398.3,122.5,398.3,123.7z"/>
			<path d="M268.2,115.4c0.1,1.8-0.1,3.7,0.3,5.6c0.7,3.9,3,6.2,6.6,6.9s7-0.9,8.7-4.3c0.7-1.2,1.1-1.4,2.2-0.7c1.5,1,3,1.8,4.6,2.6
				c0.8,0.4,0.8,0.8,0.4,1.6c-3.3,6.4-10,9.5-17.9,8.3c-6.3-1.1-10.6-4.5-12.6-10.5c-2.3-7-2.3-14.1,0.8-20.9
				c2.9-6.2,8.9-9.5,15.7-9.3c6,0.2,10.7,2.5,13.7,7.9c0.5,0.9,0.7,1.5-0.6,2c-1.8,0.8-3.4,1.8-5.2,2.7c-0.5,0.3-1,0.6-1.3-0.3
				c-1.5-4.5-5.9-5.3-9.6-4.3s-5.8,4.1-5.9,8.5C268.1,112.6,268.2,113.9,268.2,115.4z"/>
			<path d="M234.7,101.9c-3.9,7.9-8.3,15.6-12.7,23.6c-4.3-8-8.7-15.7-13.1-23.6v2c0,9.8,0,19.6,0,29.3c0,1.2-0.1,1.8-1.6,1.8
				c-3.1-0.1-3.1,0-3.1-3.2c0-11.6,0-23.2,0-34.9c0-1.2,0.3-1.6,1.6-1.6c4.7,0.1,4.7,0,6.9,4.1l9.1,16.9c0.1,0.1,0.1,0.1,0.1,0.1
				c0.6,0,0.6-0.6,0.8-0.9c3.3-6.2,6.7-12.5,10-18.7c0.6-1.1,1.2-1.7,2.5-1.5c1.4,0.2,3.3-0.6,4.3,0.3c0.9,0.9,0.3,2.8,0.3,4.3
				c0,11,0,22.1,0.1,33.2c0,1.4-0.3,2-1.8,1.9c-2.9-0.1-2.9,0-2.9-2.9v-30.1L234.7,101.9z"/>
			<path d="M189.1,114.7c-0.1-0.3-0.9,0.1-0.7-0.7c1.5-0.5,2.8-1.3,3.8-2.5c3.2-3.9,2-11.3-2.2-14.1c-2.1-1.3-4.5-2-7-1.9
				c-4.8,0-9.6,0.1-14.4-0.1c-1.2,0-1.5,0.4-1.5,1.6c0.1,7.5,0,15,0,22.5c0,4.7,0,9.5,0,14.2c0,0.7-0.1,1.4,1,1.4
				c6-0.1,12,0.1,18-0.2c4.7-0.2,8.3-4.1,9.1-9.3C196,120.3,194,116.6,189.1,114.7z M172,100.7c0-0.7,0.3-1,1-1
				c3.7,0.1,7.3-0.1,11,0.1c2.9,0.1,4.6,1.8,5,4.7c0.1,1.1,0.1,2.3,0.1,3.4c-0.3,2.7-2.2,4.4-4.9,4.6c-1.9,0.1-3.7,0-5.6,0v0.1
				c-1.8,0-3.5,0-5.3,0c-0.8,0-1.1-0.2-1.1-1.1C172,108,172,104.4,172,100.7z M190.3,125.4c-0.3,3.2-2,5.2-5.2,5.3
				c-4.1,0.2-8.1,0.1-12.1,0.1c-0.8,0-1-0.3-0.9-1.1c0.1-2,0-4.1,0-6.2c0-2,0.1-3.9,0-5.8c0-0.9,0.2-1.2,1.1-1.2
				c3.7,0.1,7.4-0.1,11.2,0.1c3.7,0.1,5.7,2,6,5.8C190.4,123.5,190.4,124.4,190.3,125.4L190.3,125.4z"/>
			<path d="M339.3,113.6c-1.8-5.5-6.3-8.7-12.3-8.9c-6.6-0.2-11.2,2.7-13.4,8.3c-1.4,3.8-1.6,7.9-0.8,11.8
				c1.5,7.5,8.8,12.3,16.3,10.8c1.8-0.4,3.6-1.1,5.1-2.2c4.7-3.2,5.8-8,6-13.3C340.3,117.9,339.9,115.8,339.3,113.6z M331.4,125
				c-0.5,2.7-2.4,4.2-5.2,4.2c-2.7,0-4.5-1.5-4.9-4.3c-0.4-3.2-0.4-6.3,0-9.4c0.4-2.8,2.4-4.3,5.2-4.2c2.7,0.1,4.5,1.6,4.9,4.3
				c0.3,1.6,0.1,3.3,0.2,5.5C331.6,122.3,331.6,123.7,331.4,125z"/>
			<path d="M363.9,130.3c-1.4,2.4-3,4.3-5.7,5.1c-5.6,1.5-10.2-1.1-11.7-6.7c-0.4-1.6-0.5-3.3-0.5-4.9c0-5.6,0-11.4,0-17
				c0-1.1,0.1-1.5,1.4-1.4c1.9,0.1,3.7,0.1,5.6,0c1.1-0.1,1.4,0.3,1.4,1.4c-0.1,5.2,0,10.3,0,15.4c0,0.7,0,1.4,0.1,2
				c0.1,3.1,1.7,4.9,4.5,4.7c2.8-0.2,5.2-1.7,5.1-5c-0.1-5.7,0-11.5-0.1-17.1c0-1.2,0.3-1.6,1.5-1.5c2,0.1,3.9,0.1,5.8,0
				c0.9,0,1.1,0.3,1.1,1.1c0,9.2,0,18.4,0,27.6c0,0.9-0.3,1.1-1.2,1.1c-2-0.1-4-0.1-6,0c-0.9,0-1.2-0.3-1.2-1.1
				C363.9,132.7,363.9,131.5,363.9,130.3z"/>
			<path d="M305.5,110.9c0,5.4,0.1,10.8-0.1,16.1c0,1.3,0.4,1.8,1.6,1.6c1.8-0.3,2.5,0.5,2.2,2.2c0,0.3,0,0.6,0,0.9
				c0,3.5,0,3.5-3.5,3.4c-1.1,0-2-0.1-3.1-0.3c-2.8-0.5-4.9-2.6-5.3-5.4c-0.2-1.1-0.3-2.2-0.3-3.4c0-10.4,0-20.8-0.1-31.2
				c0-1.3,0.3-1.8,1.6-1.7c1.8,0.1,3.5,0.1,5.3,0c1.1-0.1,1.6,0.3,1.5,1.5C305.5,100.1,305.5,105.5,305.5,110.9z"/>
			<path d="M153,115.4c0,4.8,0,9.6,0,14.4c0,1.1,0.3,1.4,1.4,1.3c0.7-0.1,1.4,0.1,2,0c1.8-0.3,2.3,0.4,2.2,2.2
				c-0.1,1.5-0.3,2-1.9,1.9c-4.1-0.1-8.3-0.1-12.5,0c-1.1,0-1.7-0.3-1.5-1.5c0.1-0.4,0.1-0.8,0-1.2c-0.1-1,0.1-1.4,1.2-1.4
				c1.1,0.1,2-0.1,3.1,0.1c1.1,0.1,1.2-0.3,1.2-1.3c0-9.7,0-19.4,0-29.1c0-0.9-0.2-1.2-1.1-1.2c-0.8,0.1-1.6-0.1-2.4,0
				c-1.6,0.3-2.1-0.3-2.1-2s0.4-2.1,2.1-2c4.1,0.1,8.2,0.1,12.3,0c1.2,0,1.7,0.3,1.5,1.5c-0.1,0.5-0.1,1.1,0,1.6c0.1,0.8-0.3,1-1,1
				c-1.1-0.1-2.2,0.1-3.3-0.1c-1.1-0.1-1.4,0.3-1.3,1.3C153,105.7,153,110.5,153,115.4z"/>
			<path class="st2" d="M33.1,150c-7.7-0.9-13.4-4.8-17.1-11.6c0.1-1.1,0.9-0.5,1.3-0.4c1,0.4,1.9,0.9,2.8,1.5
				c-0.1-0.4-0.8-0.9,0.1-1.2c3.2,4.1,7.2,6.8,12.3,7.9c0.7,0.5,1.4-0.1,2.1,0.3c-0.1,0.9-0.8,0.6-1.3,0.7c0.1-0.1,0.2,0,0.3,0.1
				c2.2,2,5,2,7.7,1.9c0.4,0,0.8,0,1.2,0.2c0.2,0.1,0.3,0.3,0.4,0.4c0,0.2-0.2,0.4-0.4,0.4l0,0C39.4,150.1,36.2,150.3,33.1,150z"/>
			<path class="st3" d="M26.8,95.4c-0.5,0-1.1-0.2-1.5-0.5l-8.2-4.7c-1.2-0.7-2.1-1.6-1.2-3c0.8-1.4,2-1.1,3.1-0.4
				c2.8,1.6,5.6,3.2,8.5,4.9c0.9,0.5,1.5,1.3,1.2,2.4C28.5,94.9,27.7,95.5,26.8,95.4z"/>
			<path class="st4" d="M34.5,146.6c-0.7-0.2-1.4,0.3-2-0.4c8.2,0.3,16.4,0.1,24.6,0.2c0.6,0,1.2,0.1,1.8,0.1
				c1.1,0.5,2.2,0.1,3.2,0.3c0.5,0.1,0.9,0.4,1.3,0.8c1.5,1.2,3.2,2,5.3,1.6c0.6,0.1,1.2-0.1,1.6,0.7c-0.4,0.6-1.1,0.3-1.6,0.3
				c-2.4,0-4.9,0-7.3,0c-0.5-0.1-1-0.2-1.5-0.1c-2.6,0.3-4.9-0.1-6.8-2c-0.6-0.6-1.4-0.5-2.1-0.5c-5.3-0.4-10.5-0.3-15.8-0.4
				C35,147,34.7,146.8,34.5,146.6z"/>
			<path class="st5" d="M62.4,146.9c-1.1-0.2-2.4,0.5-3.4-0.4c4.5-0.1,8.9-0.1,13.4,0c1.2,0.5,2.6,0.2,3.9,0.2
				c0.8-0.1,1.6,0.2,2.2,0.7c1.2,1.2,3,1.9,4.8,1.8c0.5-0.1,1.6-0.4,1.3,0.9c-4.3,0-8.5,0.1-12.8-0.1c-0.5,0.1-1.1-0.1-1.4-0.3h-1.7
				C66.6,148.5,64.7,147.2,62.4,146.9z"/>
			<path class="st6" d="M41.5,71.7c0.9,1.5,1.8,3,2.7,4.5c0.7,1.1,0.6,2.3-0.6,3c-1.2,0.7-2.2,0.1-2.8-1.1c-1.3-2.4-2.6-4.7-3.9-7
				c0.3-1.4,1.2-0.8,1.9-0.5C39.7,70.9,40.6,71.3,41.5,71.7z"/>
			<path class="st7" d="M88.5,146.6c3.6-0.1,7.2-0.7,10.6-2c1.8,0.1,3.1,1.1,3.2,2.4c-2.2,1.5-4.9,2.5-7.5,2.9
				c-0.1-0.1-0.1-0.3,0.1-0.5c0.2-0.1,0.4-0.1,1-0.1c-0.9,0-1.6-0.4-2.2-1c-0.9-0.9-2.2-1.3-3.4-1C89.5,147.4,88.7,147.7,88.5,146.6
				z"/>
			<path class="st8" d="M84.7,150c-0.4-0.3-0.9-0.5-1.4-0.3c-1.8,0.3-3.7-0.3-5-1.7c-1-1.1-2.1-1.1-3.3-1.1c-0.9,0-1.8,0.4-2.6-0.3
				c2.9-0.1,5.7-0.1,8.6,0c0.1,0.2,0.3,0.3,0.6,0.2c2.4-0.3,4.7,0.1,6.5,2c0.7,0.7,1.7,0.4,2.6,0.5c0.7,0.1,1.6-0.3,2,0.8l-0.9,0.1
				C89.3,150.3,87,150.3,84.7,150z"/>
			<path class="st9" d="M92.6,150c-0.4-0.3-0.9-0.5-1.4-0.3c-1.9,0.3-3.5-0.1-4.9-1.6c-1-1.1-2.2-1.2-3.7-1.1
				c-0.6,0.1-1.2,0.3-1.7-0.4c2.5-0.1,5.1-0.1,7.5,0c0.2,0.4,0.7,0.5,1.1,0.3c2.3-1,3.7,0.4,5.3,1.6c1,0.7,0.1,0.9-0.1,1.2
				C94.1,150,93.3,150.1,92.6,150z"/>
			<path class="st10" d="M111.8,90.2l-4.8,2.8c-2.1-0.3-2.9-0.9-3.2-2.4c1.6-1.2,3.4-2.2,5.3-3C110.3,87.9,111.4,88.9,111.8,90.2z"
				/>
			<path class="st11" d="M20.1,138.4c-0.5,0.9,0.7,1.1,0.8,2.2c-1.1-0.6-2-1.1-2.9-1.6c-0.7-0.3-1.2-1.1-2.1-0.4
				c-0.9-1.6-1.8-3.1-2-4.9c-0.5-1.4,0.3-1.4,1.1-0.9c0.9,0.5,1.6,1,2.6,0.8C18,135.4,19.5,136.7,20.1,138.4z"/>
			<path class="st12" d="M102.2,146.9c-0.5-1.6-2.2-1.5-3.2-2.4l5.4-3.4c0.9,0.9,2.4,1.1,2.5,2.8
				C105.5,145.1,104.1,146.3,102.2,146.9z"/>
			<path class="st13" d="M109,111.3l-2-2.8c0.2-1.6,1.4-2.1,2.8-2.5c1.7,1.8,3.1,3.9,4.1,6.2c-0.5,1-1.2,0.6-1.8,0.3
				C111,112.2,110,111.6,109,111.3z"/>
			<path class="st14" d="M17.7,133.5c-1,1.2-1.7,0.3-2.6-0.3c-0.5-0.4-1.2-1.1-1.2,0.3c-0.5-1.4-0.8-2.9-0.7-4.4
				c-0.2-1.8-0.1-1.9,2.3-1.9c1,0,1.4,0.5,1.3,1.5c-0.1,0.6-0.1,1.1,0.1,1.6L17.7,133.5z"/>
			<path class="st15" d="M84.7,150l7,0.1c-0.8,0.3-1.6,0.3-2.4,0.2c-17.9,0-35.8,0-53.7,0c-0.9,0-1.7,0.1-2.6-0.2l9.7-0.1
				c1.1-0.7,2.2-0.4,3.3-0.4c1.3-0.1,2.6,0,3.9-0.1c3.8-0.2,7.5,0.5,11.3,0.5c2.6,0,5.2,0,7.7,0.1c0.5,0,0.9,0.1,1.2-0.3
				C75.1,150,79.9,150.1,84.7,150z"/>
			<path class="st16" d="M115.7,129.2c-0.2,1.5-0.5,3-1.4,4.3c-1.3-0.2-2.7-0.1-3.2-1.8c0.8-2.3,1.3-4.7,1.5-7.2
				c0.6,0,0.7,0.5,0.7,0.8c-0.1,1.4,0.7,2.3,2,2.8c0.4,0.1,0.6,0.5,0.5,0.8C115.7,129,115.7,129.1,115.7,129.2z"/>
			<path class="st17" d="M101.8,99.9c2.8,1.2,5.4,3.1,7.3,5.4c0.3,1.4-1.1,1.5-1.8,2.1c-0.5,0.4-1-0.3-1.3-0.7
				c-1.4-1.7-2.8-3.5-4.3-5.3C100.9,100.5,101,100.2,101.8,99.9z"/>
			<path class="st18" d="M41.5,71.7c-1,0.7-1.7-0.1-2.4-0.6c-0.7-0.5-1.4-0.8-2.1,0c-0.5-0.7-0.9-1.3-1.2-2c-0.5-0.9-0.1-2,0.8-2.5
				l0,0c1.1-0.6,1.9-0.2,2.5,0.7C39.9,68.7,40.6,70.2,41.5,71.7z"/>
			<path class="st19" d="M88.4,70.3c0.6-1.1,1.1-2.1,1.8-3.1c0.6-0.9,1.5-1.3,2.5-0.7c0.9,0.5,1.2,1.6,0.8,2.5
				c0,0.1-0.1,0.1-0.1,0.2c-0.6,1-1.1,2-1.7,2.9C90.2,72.1,89.2,71.4,88.4,70.3z"/>
			<path class="st20" d="M88.4,70.3l3.2,1.8c-0.8,1.4-1.4,2.9-2.4,4.1c-1.4,0.1-2.6-0.6-3.2-1.8L88.4,70.3z"/>
			<path class="st21" d="M62.7,68.6c0.9-1.5,0-3.2,0.5-4.9c0.8,0.2,1.2,1.2,2,1c1.1-0.2,0.3-1.3,0.9-2.2v6C66,68.8,66,69,66,69.2
				c-0.1,1.4-0.5,1.6-1.7,1.1c-0.3-0.1-0.4-0.4-0.7-0.4c-0.2,0.9,0.3,2-0.5,2.8C62.2,71.4,62.7,70,62.7,68.6z"/>
			<path class="st22" d="M103.8,90.5c0.7,1.4,2,1.8,3.2,2.4c-1.1,0.7-2.3,1.4-3.5,2.1c-1.1,0.5-2.1,0.7-2.8-0.6
				c-0.6-1.1-0.2-2.1,0.8-2.8C102.3,91.2,103.1,90.9,103.8,90.5z"/>
			<path class="st3" d="M107,143.8c-0.4-1.3-2.2-1.3-2.5-2.8l3.2-3.4c0.9,0.9,2.2,1.3,2.8,2.4C109.6,141.5,108.4,142.8,107,143.8z"
				/>
			<path class="st23" d="M114.9,115c1.5,3.9,1.8,8.3,1.1,12.5c-0.8-0.7-0.5-1.7-0.6-2.6c0-1.2,0.1-2.4,0-3.6
				c-0.3-1.1-1.4-1.3-2.2-1.8c-0.5,0.5-0.1,1.2-0.7,1.5l-1-4.5c-0.4-1-0.1-1.3,0.9-0.9C113.2,116,114.1,115.8,114.9,115z"/>
			<path class="st24" d="M114.9,115c-0.3,1.4-1,1.7-2.2,1c-0.2-0.1-1.3-1.1-1.2,0.4c-0.8-1.7-1.6-3.4-2.4-5.1
				c1.1-0.4,1.8,0.4,2.8,0.8c0.7,0.3,1.3,0.8,2,0.2C114.3,113.1,114.7,114,114.9,115z"/>
			<path class="st25" d="M115.9,120.5c0,2.3,0.1,4.7,0.1,7c0.1,0.6-0.1,1.2-0.3,1.7c0-0.1,0-0.3-0.1-0.3c-2.1-0.7-3-2.2-3-4.3v-0.4
				c0.2-1.1,0.2-2.4,2-1.6c0.6,0.3,0.5-0.4,0.6-0.8C115.3,121.4,115,120.6,115.9,120.5z"/>
			<path class="st26" d="M37.9,92.5c2.4-3.1,5.4-5.6,8.9-7.5c0.9-0.3,1,0.1,0.7,0.7c-0.4,0.6-0.8,1.1-1.3,1.5
				c-1.4,1.4-3,2.8-4.7,3.9c-0.7,0.7-1.6,1.2-2.4,1.6C38.5,93.3,38.5,93.2,37.9,92.5z"/>
			<path class="st27" d="M86,74.4c1,0.8,2,1.4,3.2,1.8c-0.4,0.7-0.7,1.5-1.2,2.2c-0.6,0.9-1.5,1.3-2.5,0.7c-1-0.6-1.4-1.4-0.8-2.6
				C85.1,75.9,85.6,75.1,86,74.4z"/>
			<path class="st28" d="M101.8,99.9c-0.9,0.6-0.1,0.9,0.2,1.2c1.3,1.6,2.6,3.1,3.9,4.7c1.4,1.7,2.1,1.6,3.2-0.5
				c0.3,0.1,0.6,0.4,0.7,0.7c-0.9,0.8-2.2,1.3-2.8,2.5l-3.7-3.4c-1.1-2-2.7-3.6-4-5.4c-0.5-0.6-1-1.1,0.4-0.9
				C100.2,99.4,101.3,99,101.8,99.9z"/>
			<path class="st29" d="M110.5,140.1c-1-0.7-2.6-0.9-2.8-2.4l2-3.2c1.1,0.7,2,1.6,2.9,2.6C111.9,138.1,111.5,139.3,110.5,140.1z"/>
			<path class="st30" d="M52,82.7c1-0.5,2-0.9,3.1-1.1c0.9-0.2,1.1,0.2,0.5,0.8c-1.5,1.4-2.9,2.9-4.1,4.5l-4.1,2.4
				c-0.9-0.7-0.1-1.1,0.2-1.6c1.1-1.2,2.2-2.4,3.3-3.4C51.3,83.8,52,83.5,52,82.7z"/>
			<path class="st31" d="M112.6,137c-1.2-0.5-2.3-1.4-2.9-2.6c0.5-0.9,0.9-1.8,1.4-2.8c0.8,1.1,2.1,1.1,3.2,1.8
				C113.8,134.8,113.6,136.1,112.6,137z"/>
			<path class="st32" d="M13.2,125.5c0-1.4,0.3-2.8,0.7-4c1.4,1.1,2.4,2.6,2.9,4.3c0.3,1.1-0.1,1.9-1.4,1.6h-0.5
				C13,127.5,13,127.5,13.2,125.5z"/>
			<path class="st33" d="M41.5,94L39,97.1c-1.9,0.7-3,2.6-4.8,3.5c-0.3,0.2-0.6,0.6-1,0.6c-0.7,0.1-0.7-0.3-0.4-0.7
				c0.1-0.5,0.3-1.1,0.7-1.4c1.8-1.7,3.7-3.3,5.6-4.8c0.5-0.3,0.9-0.9,1.6-0.9C41.1,93.5,41.4,93.7,41.5,94z"/>
			<path class="st34" d="M115.9,120.5c-0.4,0.3-0.3,0.9-0.3,1.2c0,1.4,0.1,2.4-1.8,1.1c-1.3-0.9-0.6,1.1-1.2,1.3l-0.1-3.3
				c0.1-2.4,0.2-2.4,2.3-1.1C115.1,120,115.7,120,115.9,120.5z"/>
			<path class="st35" d="M56.2,85.1c-0.3,0.3-0.7,0.3-1.1,0.3c-0.9-0.3-0.9-0.7-0.4-1.3c0.3-0.3,0.5-0.6,0.8-0.9
				c0.5-0.6,1.1-1.1,1.8-1.5c0.3,0.1,0-0.3,0-0.1c0,0.1-0.1,0.1-0.1,0.1c-0.3,0-0.6-0.1-0.7-0.3c1.3-0.5,2.7-0.7,4.1-0.7
				c0.4-0.1,0.8-0.3,1.1,0.1c0.2,0.2,0,0.5-0.2,0.6C59.8,82.6,58.3,84.4,56.2,85.1z"/>
			<path class="st36" d="M41.5,94l-0.8-0.3c-0.3-0.5-0.1-0.9,0.1-1.4c0.2-0.4,0.5-0.7,0.8-0.9c1.5-1.1,2.9-2.2,4.3-3.4
				c0.5-0.2,1.1-0.5,1.6-0.1c-0.2,0.5-0.8,0.8-0.3,1.4C45.3,90.7,43.3,92.3,41.5,94z"/>
			<path class="st37" d="M56.4,81.3H58c-1,1.1-1.8,2-2.8,2.8c-0.5,0.5-0.8,0.8-0.1,1.3l-3.7,1.4c0.7-2.1,2.4-3.3,3.9-4.7
				c0.6-0.5,0.1-0.4-0.2-0.5C55.5,81.3,56,81.2,56.4,81.3z"/>
			<path class="st38" d="M83.7,86.2c1,0.3,1.8,0.9,2.4,1.7c-0.5,1.3-1.7,2.2-3.1,2l-2.8-1.7C81.4,87.5,82.4,86.6,83.7,86.2z"/>
			<path class="st39" d="M111.8,90.2l-2.8-2.7c0.5-0.3,0.9-0.5,1.3-0.8c1.1-0.8,2.2-0.8,3,0.5c0.7,1.2,0.2,2.1-0.9,2.8
				C112.2,90,112,90.1,111.8,90.2z"/>
			<path class="st40" d="M63.1,72.7v-3.6c1.3,0.9,2.6,2,3.1-0.5c0,1.3,0,2.6,0.1,3.9C65.2,73.9,64.3,74,63.1,72.7z"/>
			<path class="st41" d="M32.8,100.5c0.1,0.4,0.2,0.7,0.6,0.3c1.2-1.2,3-1.9,4-3.3c0.4-0.6,0.9-0.9,1.6-0.3l-1.7,2.8
				c-1.3,0.5-2.2,1.4-3.1,2.4c-0.5,0.5-1.1,1-1.7,1.4c-0.3,0.2-0.8,0.4-0.7-0.4C31.9,102.2,32.3,101.3,32.8,100.5z"/>
			<path class="st42" d="M34.2,123.2c0.9,2.3,0.5,3.2-1.6,4.2c-0.4,0.2-0.7,0.1-0.8-0.2c-0.4-0.5-0.7-1.2-0.7-1.9
				C31.9,123.5,32.7,122.9,34.2,123.2z"/>
			<path class="st43" d="M99.6,98.8c-0.2,0.1-0.8-0.1-0.3,0.5c1.2,1.3,2.4,2.7,3.4,4.1c0.3,0.5,1,0.9,0.5,1.6l-2.8-1.7
				c-0.8-1.6-2.2-2.8-3.1-4.3c-0.3-0.5-1-1.3,0.5-1C98.5,98.2,99.1,98.4,99.6,98.8z"/>
			<path class="st44" d="M56.2,85.1l5.4-4.4l-1-0.1c1.1-0.5,2.1-0.3,3.2-0.3c0.1,0.3,0.1,0.6-0.2,0.8c-1.4,1.1-2.2,2.7-3.9,3.3
				L56.2,85.1z"/>
			<path class="st45" d="M59.7,84.4l4.1-4.1h2.4c0.4,0.6,0.1,1-0.3,1.3c-1.2,1-2.3,2.4-4.1,2.5C61,84.5,60.3,84.3,59.7,84.4z"/>
			<path class="st46" d="M30.4,122.9l-0.3-1.7c0.3-0.9,1-1.2,1.6-1.7c0.8-0.5,1.2-1.3,1.1-2.2c0-0.3,0-0.7,0-1.1c0-0.5,0-0.9,0-1.4
				c0.1-0.7-0.3-1.6,0.8-2v6.6c0.3,2-0.5,3.3-2.2,3.8C31,123.3,30.6,123.2,30.4,122.9z"/>
			<path class="st47" d="M85.3,97.4c2.4-1.1,4.9-0.8,7.3-0.3c-0.1,0.1-0.3,0.3-0.4,0.3c-0.3,0.1-0.7,0.1-1.1,0.1c-0.6,0-1.2,0-1.8,0
				c-0.4-0.1-0.8,0-1-0.3c0.5,1.3,1.9,2,2.5,3.3h-2C87.2,100.2,85.9,99,85.3,97.4z"/>
			<path class="st48" d="M31.8,103.2c1.2,0.2,1.6-1,2.4-1.6c0.7-0.6,1.4-1.2,2-1.8c0.4-0.4,0.7-0.1,1.1,0.1l-1.4,2.8
				c-1.4,0.8-2.8,1.7-4,2.8c-0.5,0.4-1.1,0.9-0.8-0.4C31.1,104.4,31.3,103.7,31.8,103.2z"/>
			<path class="st49" d="M41.8,91.6l-0.7,0.7c-1.2,2-3.3,3-5.1,4.3c-0.5,0.3-1.1,0.4-0.7-0.6c0.7-1.3,1.6-2.5,2.7-3.5
				c0.6,0.9,1-0.1,1.4-0.3c0.7-0.4,1.4-0.9,2.1-1.4C41.7,91.1,41.8,91.4,41.8,91.6z"/>
			<path class="st50" d="M83.7,86.2c-1,0.9-1.9,2-3.4,2l-1.7-1.1c0.8-1.1,1.9-1.9,3.1-2.4C82.5,84.9,83,85.6,83.7,86.2z"/>
			<path class="st51" d="M35.2,96.1c0.1,0.5,0.2,0.6,0.6,0.3c1.7-1.4,3.5-2.7,5.3-4c0,0.5-0.1,1-0.3,1.4c-2.3,1.6-4.5,3.4-6.6,5.3
				c-0.2,0.2-0.4,0.5-0.7,0.1C33.7,97.9,34.6,97.1,35.2,96.1z"/>
			<path class="st52" d="M15.7,127.3c1.6-0.2,1.1-1.2,0.7-2c-0.8-1.2-1.8-2.4-2.4-3.8c0-0.4,0.1-0.7,0.3-1.1
				c1.3,0.4,2.6,2.3,2.8,3.8l-0.1,6.1c-0.6-0.5-0.3-1.1-0.3-1.8c0-0.7-0.3-1.1-1.1-1c-0.1-0.1-0.1-0.1-0.1-0.2
				C15.6,127.4,15.6,127.3,15.7,127.3z"/>
			<path class="st53" d="M33.1,115v1.4c-1.1,0.9-1.7,2.3-3.4,2.1c-0.5-2.2-0.5-4.6,0-6.9l0.2,0.1c0.1,0.3,0.3,0.7,0.2,1
				c0,0.3,0,0.7,0,1s0,0.8,0,1.2c0,0.3,0,0.7,0.1,1.1C31.2,115.7,31.9,114.2,33.1,115z"/>
			<path class="st54" d="M30.4,122.9c1.8-0.1,3.1-1.4,3.1-3.4c0.6,1.2,0.3,2.6,0.7,3.8c-1.5-0.1-2.1,1.2-3.1,2.1
				C30.7,124.6,30.4,123.7,30.4,122.9z"/>
			<path class="st55" d="M31.1,105c0.1,0.2,0,0.7,0.4,0.2c0.9-1.1,2.4-1.5,3.3-2.7c0.3-0.4,0.7-0.1,1.1,0.1c-0.1,0.5-0.3,1-0.6,1.4
				c-1,1.4-2.7,2-3.9,3.2c-0.1,0.1-0.4,0.3-0.6,0.1c-0.4-0.3-0.2-0.7-0.1-1.1C30.7,105.8,30.8,105.3,31.1,105z"/>
			<path class="st56" d="M67.1,84.1L63.7,84c0-0.7,0.5-0.6,0.9-0.7c0.3,0,0.7,0,1.1,0c2,0.3,3-1.3,4.5-2.2c0.1,0-0.1-0.1-0.1-0.1
				c-0.5,0.3-0.9,0.3-0.9-0.4c1.4-0.3,2.4,0.9,3.7,0.7C71.3,82.8,69.8,84.8,67.1,84.1z"/>
			<path class="st57" d="M33.1,115c-1.4,0-2.2,1.2-3.4,2v-2c0.5-0.9,1.3-1.4,2-2c0.6-0.4,1-0.9,1.1-1.6c0.1-0.3,0.3-0.7,0.7-0.5
				c0,0.7,0,1.4-0.1,2C32.9,113.5,33.3,114.3,33.1,115z"/>
			<path class="st58" d="M91.2,97.1h1.1c1.2,0.4,2.3,1.2,3,2.4c0.4,0.6,0.7,1.2,0.1,1.8l-1.7-0.4c-0.4-0.4-1-0.1-1.4-0.3
				c0.3-0.4,0.2-0.9-0.1-1.3C91.8,98.6,90.9,98.1,91.2,97.1z"/>
			<path class="st59" d="M97.8,98.1c-0.7,0.1-0.6,0.3-0.2,0.7c0.9,1.1,1.6,2.2,2.6,3.2c0.3,0.4,0.7,0.8,0.3,1.3l-2-1.1
				c-0.5-1.4-1.7-2.4-2.7-3.4c-0.3-0.3-0.6-0.7-0.3-1.1c0.3-0.4,0.7-0.3,1.1-0.1C96.9,97.7,97.4,97.9,97.8,98.1z"/>
			<path class="st60" d="M84,101.3l-2.4,0.7c-1.2-0.5-2.2-1.5-2.8-2.8c0.7-0.5,1.5-0.9,2.4-1C81.9,99.4,82.8,100.5,84,101.3z"/>
			<path class="st61" d="M47.6,87.9l-1.7,0.3c-0.1-0.3,0-0.5,0.2-0.7c1.4-1.4,2.9-2.8,4.3-4.2l1.6-0.7c0.5,0.1,1,0.2,0.3,0.8
				C50.7,84.9,49.2,86.4,47.6,87.9z"/>
			<path class="st62" d="M74.7,106.1c-0.4,0.5-1.1,0.7-1.4,1.4c-1.4-0.2-2.6-1.3-2.8-2.8c0.4-0.7,0.9-1.2,1.7-1.4
				C72.9,104.4,73.7,105.3,74.7,106.1z"/>
			<path class="st63" d="M70.6,104.7c0.8,1.1,1.5,2.1,2.8,2.8c-0.3,0.7-1,0.9-1.4,1.4c-1.4-0.3-2.1-1.4-2.4-2.8
				C69.6,105.4,70,104.9,70.6,104.7z"/>
			<path class="st64" d="M64.8,83.7c-0.4,0-0.8-0.1-1.1,0.3l-2,0.1c1.8-0.8,3.3-2.1,4.5-3.8c0.9-0.1,1.8,0,2.8,0.3
				c0.1,0.1,0.1,0.2,0.1,0.3C69,81,69,81,69,81C67.2,81.4,66.2,82.9,64.8,83.7z"/>
			<path class="st65" d="M85.3,97.4c1.2,1,2,2.5,3.4,3.2h-1c-1.4,0.4-2.6,0.3-3.2-1.2c-0.3-0.7-1.2-0.7-1.2-1.4
				C84,97.3,84.7,97.5,85.3,97.4z"/>
			<path class="st66" d="M50.3,83.3c0.2,0.1,0.7,0.2,0.4,0.4c-1.7,1.1-2.8,2.9-4.5,4.1c-0.3-0.1-0.5-0.3-0.3-0.7
				c0.5-0.5,0.9-1,1.3-1.5c0.4-0.5,0-0.5-0.3-0.6C47.9,84.3,49.1,83.7,50.3,83.3z"/>
			<path class="st67" d="M84,101.3c-1.6-0.2-2.8-1.5-2.8-3.1l1.1-0.3c1.4,0.7,2,2.2,3.1,3.1C85.1,101.3,84.5,101.2,84,101.3z"/>
			<path class="st68" d="M67.1,84.1c1.2,0.1,2.4-0.3,3.2-1.1c0.7-0.7,1.8-1.1,2.7-1.6c0.5,0,1,0,1.1,0.7c-1.3,0.9-2.3,2.6-4.2,2.4
				C69,84.3,68,84.7,67.1,84.1z"/>
			<path class="st69" d="M95.3,101.3c0.1-2.2-1.8-3-3-4.2l0.4-0.1c0.5-0.1,1,0.1,1.3,0.5c1.8,0.8,3.1,2.5,3.4,4.5
				C96.7,101.9,96,101.7,95.3,101.3z"/>
			<path class="st70" d="M92.3,100.5c0.5,0.1,1.1-0.1,1.4,0.4c-0.9,0.1-1.8-0.1-2.8-0.3c-1.4-0.7-2.1-2-2.9-3.2
				c0.4-0.3,0.8-0.2,1.1-0.2C90.4,98.1,91.8,98.8,92.3,100.5z"/>
			<path class="st71" d="M77.8,103.7c-0.2,0.4-0.6,0.7-1.1,0.7c-1.7,0.1-2.1-1.3-2.8-2.4c0.3-0.6,0.9-0.8,1.4-1
				C76.6,101.5,77.6,102.3,77.8,103.7z"/>
			<path class="st72" d="M30.7,106.3l0.1,0.9c1.4-1.2,2.9-2.3,4.5-3.2c-0.1,0.7-0.3,1.4-0.7,2c-1.2,0.6-2.2,1.5-3.3,2.4
				c-0.3,0.2-0.6,0.6-0.9,0.3c-0.3-0.2-0.2-0.7-0.1-1.1C30.3,107.2,30.4,106.7,30.7,106.3z"/>
			<path class="st73" d="M17.1,124.3c-0.9-1.3-1.5-2.8-2.8-3.8c0.1-0.7,0.3-1.2,0.7-1.7c1.3,1.1,2.4,2.4,2.4,4.2
				C17.4,123.5,17.4,123.9,17.1,124.3z"/>
			<path class="st74" d="M34.5,106.4c-0.1,0.9-0.3,1.6-0.7,2.4c-1.4,0.9-2.4,2.4-4.1,2.7l-0.1,0.1c0.1-0.7-0.1-1.4,0.4-2.1
				c1.4-0.7,2.4-1.9,3.6-2.7C34,106.6,34.1,106.3,34.5,106.4z"/>
			<path class="st75" d="M34.5,106.4c-1.1,1.6-3.1,2-4.2,3.7c-0.2,0.3-0.1-0.5-0.3-0.7c-0.1-0.6,0-1.2,0.3-1.7
				c0.3,0.1-0.4,1.2,0.5,0.5c0.8-0.7,1.6-1.2,2.4-1.9c0.4-0.3,0.7-0.5,1.2-0.2C34.6,106.2,34.6,106.3,34.5,106.4z"/>
			<path class="st76" d="M81.6,84.8c-0.9,1-1.9,1.8-3.1,2.4c-0.7-0.1-1.2-0.3-1.7-0.7c1.1-0.8,2.2-1.8,3.4-2.4
				C80.7,84.1,81.3,84.4,81.6,84.8z"/>
			<path class="st77" d="M74,101.9c1.1,0.6,1.5,2,2.8,2.4c-0.3,0.6-0.9,0.7-1.4,1.1c-1.2-0.5-2.3-1.2-2.4-2.8
				C73.2,102.2,73.6,101.9,74,101.9z"/>
			<path class="st78" d="M85.4,100.9c-1.7-0.3-2.1-2-3.1-3.1h1.1c0.6,0.4,1.5,0.4,1.7,1.2c0.4,1.6,1.6,1.6,2.8,1.5
				C87.1,101.1,86.2,100.8,85.4,100.9z"/>
			<path class="st79" d="M97.4,101.9c-0.9-1.6-1.9-3.3-3.4-4.5c0.9-0.1,1.7-0.3,2.4,0.3c-0.7,0-1.2,0-0.5,0.9
				c0.8,0.7,1.5,1.5,2.2,2.4c0.3,0.5,0.7,0.8,0.3,1.4L97.4,101.9z"/>
			<path class="st80" d="M33.2,117.4c0.3,1.2-0.5,1.8-1.3,2.5c-0.6,0.5-1.2,0.9-1.8,1.3c-0.3-0.4-0.4-0.9-0.3-1.4
				C30.6,118.5,31.5,117.4,33.2,117.4z"/>
			<path class="st81" d="M19.4,112.2c0.1-0.6,0.7-0.7,1.1-1.1c1.2,0.7,2,2,1.7,3.4c-0.1,0.3-0.4,0.6-0.7,0.7
				C20.1,114.7,19.7,113.5,19.4,112.2z"/>
			<path class="st82" d="M18.8,119.2c-0.1,0.6-0.3,1.2-0.7,1.7c-0.9-1.3-2-2.5-2.1-4.2c0.1-0.5,0.3-0.8,0.6-1.1
				C18,116.4,18.5,117.7,18.8,119.2z"/>
			<path class="st83" d="M73.1,102.6c0.6,1.1,1.7,1.7,2.4,2.8l-0.7,0.7c-1.6-0.2-2.2-1.3-2.4-2.8L73.1,102.6z"/>
			<path class="st84" d="M78.8,99.2c1.1,0.8,2,1.7,2.8,2.8c-0.5,0.4-1.1,0.6-1.7,0.7c-1.1-0.7-1.8-1.8-1.8-3.2
				C78.3,99.2,78.6,99.2,78.8,99.2z"/>
			<path class="st85" d="M68.9,81v-0.4c0.1,0,0.3,0,0.3,0c0.2,0.5,0.9,0.1,1.2,0.7c-1.4,1-2.5,2.8-4.7,2.4c-0.4-0.6,0.1-0.8,0.4-1.1
				C67,82,67.9,81.4,68.9,81z"/>
			<path class="st86" d="M75.1,82c0.6-0.1,1.2,0.1,1.4,0.7c-0.9,0.8-1.9,1.3-2.6,2.3c-0.1,0.3-0.5,0.3-0.8,0.2L73,85.1
				c-0.5-0.1-1,0.1-1.4-0.3C72.1,83,73.7,82.6,75.1,82z"/>
			<path class="st87" d="M22.2,114.6c-0.2-1.3-1.1-2.3-1.7-3.4c0.3-0.5,0.6-0.8,1.1-1c1.2,0.7,1.8,2,1.7,3.4
				C23,114.1,22.6,114.4,22.2,114.6z"/>
			<path class="st88" d="M78.2,99.5l1.8,3.2c-0.1,0.3-0.4,0.4-0.7,0.3c-1.3-0.1-2-0.9-2.4-2.8C77.1,99.8,77.6,99.6,78.2,99.5z"/>
			<path class="st89" d="M76.8,100.2c1,0.8,1,2.4,2.4,2.8l-1.4,0.7l-2.4-2.8C75.9,100.7,76.2,100.2,76.8,100.2z"/>
			<path class="st90" d="M29.8,111.5c1.4-0.9,2.2-2.5,4.1-2.7c0.1,0.6-0.1,1.2-0.3,1.7c-0.9,0.3-1.4,0.9-2.2,1.3
				c-0.5,0.3-0.9,0.9-1.6,0.7L29.8,111.5z"/>
			<path class="st91" d="M16,116.7c0.6,1.4,1.9,2.6,2.1,4.2c-0.1,0.3-0.2,0.5-0.3,0.8c-1.1-1-2.1-2-2.5-3.5
				C15.3,117.6,15.6,117,16,116.7z"/>
			<path class="st92" d="M21.8,109.8l1.1-0.7c1.4,0.1,2.2,1.4,2.1,3.1l-1.1,0.7C23.1,112,22.4,110.9,21.8,109.8z"/>
			<path class="st93" d="M78.2,83.1l1.4,0.7c-0.9,1.2-1.9,2.2-3.4,2.4c-0.4,0-0.8,0.1-1.1-0.3C75.5,84.2,77.1,83.9,78.2,83.1z"/>
			<path class="st94" d="M15.3,118c0.8,1.2,2,2.1,2.5,3.5c0.1,0.5-0.1,0.9-0.4,1.3l-2.4-4.2C15,118.5,15.1,118.2,15.3,118z"/>
			<path class="st95" d="M24.9,112.2c-0.5-1.1-0.7-2.6-2.1-3.1l1.1-0.7c1.4,0.5,2.1,1.5,2,3.1L24.9,112.2z"/>
			<path class="st96" d="M73,85.1c0.9-0.4,1.1-1.4,2-1.8c0.5-0.3,1-0.5,1.5-0.6l0.7,0.1c-0.3,1.6-2,1.9-2.8,3L73,85.1z"/>
			<path class="st97" d="M76.1,86.2l3.4-2.4c0.3,0,0.5,0.1,0.7,0.3c-0.9,1.1-1.9,2.2-3.4,2.4C76.5,86.5,76.3,86.4,76.1,86.2z"/>
			<path class="st98" d="M75.1,82c-1.1,1.1-2.5,1.6-3.4,2.8c-0.6-0.1-1.2,0.1-1.7-0.3c1.1-0.3,1.8-1,2.6-1.7
				c0.5-0.4,1.1-0.7,1.6-0.8L75.1,82z"/>
			<path class="st99" d="M19.8,117.4c-0.1,0.3-0.1,0.5-0.4,0.6c-1.5-0.4-2-1.7-2.4-3c0.2-0.4,0.3-0.8,0.7-1.1
				C19,114.7,19.7,116,19.8,117.4z"/>
			<path class="st100" d="M74.4,85.8c0.3-1.6,2-1.8,2.8-3l1.1,0.3c-0.6,1.4-2.2,1.6-3.1,2.8L74.4,85.8z"/>
			<path class="st101" d="M29.8,112.6l2.2-1.7c0.5-0.3,0.9-0.7,1.5-0.3c0,0.1,0,0.2,0,0.3c-0.3,0.1-0.4,0.4-0.3,0.7
				c-1.1,0.7-1.8,2.2-3.4,2V112.6z"/>
			<path class="st102" d="M21.8,109.8c1.1,0.7,1.8,1.8,2,3.1l-0.7,0.7l-1.7-3.4L21.8,109.8z"/>
			<path class="st103" d="M26,111.6c-0.5-1.1-0.9-2.4-2-3.1c0.5-0.3,1.1-1.1,1.4-0.1C25.7,109.3,27.6,110.1,26,111.6z"/>
			<path class="st104" d="M33.2,117.4c-1.3,0.6-2.3,1.5-3.4,2.4c0-0.5,0-0.9-0.1-1.4c1.4-0.3,2.1-1.8,3.4-2.1
				C33.2,116.7,33.2,117,33.2,117.4z"/>
			<path class="st105" d="M83,89.9c1.2-0.4,2.2-1.1,3.1-2c0.2,0.2,0.6,0.4,0.5,0.6C86.4,89.6,84,90.6,83,89.9z"/>
			<path class="st106" d="M17.1,115c0.8,1,1.3,2.2,2.4,3l-0.6,1.2l-2.2-3.5C16.7,115.4,16.9,115.2,17.1,115z"/>
			<path class="st107" d="M19.8,117.4l-2.1-3.5c0.2-0.3,0.5-0.5,0.7-0.7c1.1,1,2.2,2,1.7,3.8L19.8,117.4z"/>
			<path class="st108" d="M19.4,112.2l2.1,3.1l-0.7,0.8c-1.2-0.7-1.6-2-2.2-3.2L19.4,112.2z"/>
			<path class="st109" d="M69.6,106.1c0.9,0.9,1.4,2,2.4,2.8c-1.2,0.8-1.6-0.5-2.2-1.1C69.6,107.4,68.3,106.8,69.6,106.1z"/>
			<path class="st110" d="M18.7,112.9c1,0.9,1.4,2.2,2.2,3.2l-0.7,1c0.1-1.6-1.4-2.4-1.7-3.8L18.7,112.9z"/>
			<path class="st111" d="M15.7,127.3v0.3c-1.1,0.1-2.6-0.6-2.4,1.4c-0.3-1.2-0.3-2.4,0-3.6C12.9,127.6,14.4,127.5,15.7,127.3z"/>
			<path class="st112" d="M61.3,150H50c-1.8-0.3-3.6-0.1-5.4-0.1c-0.6-0.1-1.2,0.1-1.8-0.1h-0.3c-0.4-0.4-1.1-0.5-1.4-0.9
				c-0.9-1.1-2.2-1.4-3.6-1.4c-0.7,0-1.7,0.4-2.2-0.7c5.7-0.2,11.4,0.1,17,0.3c0.5,0,1,0.2,1.3,0.6c1.4,1.5,3,2.5,5.3,2.2
				C59.6,149.6,60.5,149.4,61.3,150z"/>
			<path class="st113" d="M35.3,146.6c0.7,0.6,1.6,0.3,2.3,0.3c2.4-0.3,3.7,1.1,4.9,2.8c-1.2-0.1-2.4-0.1-3.6,0.1
				c-2.5,0.5-4.1-1.1-5.8-2.4c0.4-0.7,1.2-0.1,1.5-0.7H35.3z"/>
			<path class="st113" d="M42.8,149.7c2.4,0.2,4.8-0.3,7.2,0.3h-7.2V149.7z"/>
			<path class="st15" d="M62.4,146.9c2.7-0.5,4.6,0.9,6.2,2.8C65.9,150,63.9,148.9,62.4,146.9z"/>
			<path class="st114" d="M45.9,87.2l0.3,0.7l-0.3,0.3c-1.1,1.6-2.7,2.4-4.1,3.4c-0.3-0.1-0.4-0.4-0.3-0.7L45.9,87.2z"/>
			<path class="st115" d="M92.3,100.5c-1-1.2-2.3-2.1-3.1-3.4h2l1,1.5C92.6,99.3,93,99.9,92.3,100.5z"/>
			<path class="st116" d="M29.7,113.6c1.3-0.4,2-2,3.4-2c0.1,1.5-1.4,1.6-2,2.5c-0.4,0.4-0.9,0.7-1.4,0.9L29.7,113.6z"/>
			<path class="st117" d="M68.9,81c-0.5,0.9-1.4,1.2-2.2,1.8c-0.4,0.3-0.9,0.4-0.9,1h-1.1C65.9,82.4,66.8,80.8,68.9,81z"/>
		</g>
	</g>
</g>
</svg>
