<?xml version="1.0" encoding="UTF-8" standalone="no"?>
<svg
   id="Layer_1"
   data-name="Layer 1"
   viewBox="0 0 910.19 118.33"
   version="1.1"
   sodipodi:docname="66dda84810842-Oracle.svg"
   width="910.19"
   height="118.33"
   inkscape:version="1.4.3 (0d15f75, 2025-12-25)"
   xmlns:inkscape="http://www.inkscape.org/namespaces/inkscape"
   xmlns:sodipodi="http://sodipodi.sourceforge.net/DTD/sodipodi-0.dtd"
   xmlns="http://www.w3.org/2000/svg"
   xmlns:svg="http://www.w3.org/2000/svg">
  <sodipodi:namedview
     id="namedview1"
     pagecolor="#ffffff"
     bordercolor="#999999"
     borderopacity="1"
     inkscape:showpageshadow="2"
     inkscape:pageopacity="0"
     inkscape:pagecheckerboard="0"
     inkscape:deskcolor="#d1d1d1"
     inkscape:zoom="2.67"
     inkscape:cx="993.63296"
     inkscape:cy="59.17603"
     inkscape:current-layer="Layer_1" />
  <defs
     id="defs1">
    <style
       id="style1">
      .cls-1 {
        fill: #f80000;
        stroke-width: 0px;
      }
    </style>
  </defs>
  <path
     class="cls-1"
     d="m 392.93,76.97 h 60.14 L 421.27,25.81 362.9,118.32 H 336.34 L 407.33,7.2 c 3.09,-4.49 8.23,-7.2 13.94,-7.2 5.71,0 10.66,2.62 13.66,7.02 L 506.2,118.33 H 479.64 L 467.11,97.66 H 406.22 L 392.94,76.99 Z M 668.86,97.64 V 1.11 h -22.54 v 105.98 c 0,2.9 1.12,5.71 3.27,7.86 2.15,2.15 5.05,3.37 8.23,3.37 h 102.8 L 773.9,97.65 H 668.86 Z M 295.94,80.34 c 21.89,0 39.66,-17.68 39.66,-39.57 0,-21.89 -17.77,-39.66 -39.66,-39.66 h -98.62 v 117.2 h 22.53 V 21.78 h 74.59 c 10.48,0 18.89,8.51 18.89,18.99 0,10.48 -8.42,18.99 -18.89,18.99 l -63.55,-0.09 67.29,58.65 h 32.74 L 285.65,80.34 Z M 58.61,118.32 C 26.26,118.32 0,92.13 0,59.77 0,27.41 26.26,1.12 58.61,1.12 h 68.12 c 32.36,0 58.6,26.28 58.6,58.65 0,32.37 -26.24,58.55 -58.6,58.55 z m 66.6,-20.68 c 20.96,0 37.94,-16.93 37.94,-37.88 0,-20.95 -16.98,-37.98 -37.94,-37.98 h -65.1 c -20.95,0 -37.94,17.02 -37.94,37.98 0,20.96 16.99,37.88 37.94,37.88 z m 428.04,20.68 c -32.36,0 -58.65,-26.19 -58.65,-58.55 0,-32.36 26.28,-58.65 58.65,-58.65 h 80.91 l -13.19,20.67 h -66.22 c -20.95,0 -37.98,17.02 -37.98,37.98 0,20.96 17.02,37.88 37.98,37.88 h 81.28 l -13.28,20.67 z M 828.9,97.64 c -17.3,0 -31.99,-11.6 -36.48,-27.59 h 96.34 L 902.04,49.38 H 792.42 c 4.49,-15.9 19.18,-27.59 36.48,-27.59 h 66.13 L 908.41,1.12 h -81 c -32.36,0 -58.65,26.28 -58.65,58.65 0,32.37 26.28,58.55 58.65,58.55 h 69.5 l 13.28,-20.67 h -81.28"
     id="path1"
     sodipodi:nodetypes="ccccccsccccccccccsssccccsssccccsscccccssssssssssssssssssccsssccscccccsccsssccc" />
</svg>
